<svg xmlns="http://www.w3.org/2000/svg" width="28" height="28" viewBox="0 0 28 28">
  <defs>
    <style>
      .cls-1 {
        fill: #fff;
        fill-rule: evenodd;
      }
    </style>
  </defs>
  <path id="Rectangle_9_copy_4" data-name="Rectangle 9 copy 4" class="cls-1" d="M606.445,2107.57c-3.3,4.73-4.467,6.08-4.272,8.81s-0.363,3.5-1.691,3.63-3.823-.57-4.261-5.05c-0.189-1.94,1.232-5.76,1.232-5.76H587.51a2.2,2.2,0,0,1-2.51-2.46c0-1.75,1.988-2.28,1.988-2.28a2.119,2.119,0,0,1-1.273-1.96,2.2,2.2,0,0,1,2.2-2.17,1.8,1.8,0,0,1-1.134-2.04,2.424,2.424,0,0,1,2.023-2.02,1.823,1.823,0,0,1-.7-2.11c0.447-1.03,1.626-2.16,4.272-2.16h12.361a1.754,1.754,0,0,1,1.779.93V2107A1.959,1.959,0,0,1,606.445,2107.57Zm0.93-15.57h4.844v16.47h-4.844V2092Zm0.781,0H613v16.47h-4.844V2092Z" transform="translate(-585 -2092)"/>
</svg>
